<svg width="24" height="24" viewBox="0 0 24 24" fill="none" xmlns="http://www.w3.org/2000/svg">
  <path d="M20.84 4.61C20.3292 4.09904 19.7228 3.69363 19.0554 3.41707C18.388 3.14051 17.6725 2.99824 16.95 2.99824C16.2275 2.99824 15.512 3.14051 14.8446 3.41707C14.1772 3.69363 13.5708 4.09904 13.06 4.61L12 5.67L10.94 4.61C9.9083 3.5783 8.50903 2.99881 7.05 2.99881C5.59096 2.99881 4.19169 3.5783 3.16 4.61C2.1283 5.6417 1.54881 7.04096 1.54881 8.5C1.54881 9.95904 2.1283 11.3583 3.16 12.39L12 21.23L20.84 12.39C21.351 11.8792 21.7564 11.2728 22.033 10.6054C22.3095 9.93796 22.4518 9.22247 22.4518 8.5C22.4518 7.77753 22.3095 7.06204 22.033 6.39463C21.7564 5.72722 21.351 5.12078 20.84 4.61V4.61Z" stroke="currentColor" stroke-width="2" stroke-linecap="round" stroke-linejoin="round"/>
</svg>
